<svg xmlns="http://www.w3.org/2000/svg" width="512" height="512" viewBox="0 0 512 512" version="1.1">
	<path d="M 308.500 64.368 C 299.483 68.513, 277.693 83.486, 267.762 92.361 C 255.617 103.216, 236.108 125.315, 229.528 135.673 C 221.416 148.443, 209.059 169.239, 208.457 171.135 C 207.652 173.671, 204.727 174.300, 194 174.244 C 183.246 174.188, 174.850 172.483, 160.750 167.492 C 148.389 163.117, 143.913 160.819, 138.870 156.264 C 133.071 151.025, 129.629 145.587, 126.459 136.657 C 124.300 130.574, 123.126 128.618, 121.196 127.884 C 117.827 126.603, 112.596 128.430, 109.917 131.822 C 107.935 134.334, 107.830 135.401, 108.232 149 C 108.588 161.057, 109.049 164.511, 110.966 169.500 C 114.971 179.922, 124.724 187.271, 143.117 193.728 C 153.127 197.242, 154.093 197.388, 170 197.786 C 179.075 198.012, 186.871 198.547, 187.325 198.974 C 187.779 199.401, 186.597 202.844, 184.699 206.625 C 182.801 210.406, 176.949 222.050, 171.695 232.500 C 166.442 242.950, 160.276 255.775, 157.993 261 C 155.711 266.225, 150.717 276.427, 146.897 283.671 C 143.077 290.915, 138.889 299.690, 137.590 303.171 C 135.434 308.952, 128.206 326.059, 119.282 346.500 C 117.361 350.900, 113.785 360.125, 111.336 367 C 108.887 373.875, 104.908 384.225, 102.494 390 C 94.607 408.873, 92.812 413.437, 91.486 418 C 90.767 420.475, 89.461 424.177, 88.586 426.226 C 87.710 428.276, 86.074 433.892, 84.952 438.707 C 83.020 446.990, 83.004 447.530, 84.646 448.731 C 89.585 452.342, 92.036 449.741, 98.532 434 C 100.007 430.425, 102.793 424.125, 104.722 420 C 106.652 415.875, 110.911 406.425, 114.186 399 C 121.016 383.517, 147.112 332.087, 153.477 321.567 C 155.829 317.680, 159.656 310.675, 161.981 306 C 164.307 301.325, 169.270 292.325, 173.011 286 C 176.751 279.675, 183.204 268.425, 187.351 261 C 196.438 244.729, 203.045 233.811, 208.765 225.613 C 211.111 222.251, 214.711 216.874, 216.765 213.665 C 223.903 202.513, 226.143 199.838, 229.530 198.423 C 232.276 197.276, 240.355 197.002, 271.218 197.010 C 310.900 197.020, 324.521 196.151, 336 192.880 C 345.408 190.199, 349.207 187.634, 348.814 184.226 L 348.500 181.500 299 180.925 C 250.614 180.363, 243.268 179.860, 241.491 176.986 C 239.372 173.557, 248.001 157.118, 263.719 134.640 C 278.458 113.562, 302.125 88.124, 318 76.297 C 324.311 71.595, 324.500 71.324, 324.500 66.977 L 324.500 62.500 319 62.285 C 315.030 62.129, 312.109 62.708, 308.500 64.368 M 377.701 72.193 C 375.507 74.500, 372.540 78.887, 371.106 81.943 C 368.912 86.621, 368.500 88.902, 368.500 96.355 L 368.500 105.210 374.108 110.429 C 381.221 117.049, 393.335 122.993, 407 126.567 C 416.625 129.084, 419.375 129.344, 440 129.692 C 465.771 130.127, 467 130.279, 467 133.027 C 467 135.479, 456.737 140.412, 435.793 148.029 C 416.097 155.192, 401.208 162.144, 391.072 168.910 C 386.357 172.056, 379.734 176.294, 376.352 178.326 C 365.143 185.063, 343.543 207.223, 333.295 222.500 C 324.139 236.149, 314.977 258.221, 316.943 261.894 C 318.316 264.458, 320.828 265.249, 322.839 263.750 C 326.890 260.731, 336.100 249.786, 341.480 241.598 C 344.697 236.702, 349.190 230.601, 351.464 228.040 C 353.739 225.480, 356.577 221.802, 357.772 219.869 C 358.967 217.935, 365.059 211.661, 371.309 205.926 C 381.795 196.306, 384.047 194.780, 400.447 186.177 C 419.785 176.035, 432.857 170.695, 457.500 162.874 C 466.300 160.081, 482.050 154.922, 492.500 151.411 L 511.500 145.025 511.787 134.792 C 512.039 125.824, 511.779 123.874, 509.683 119.029 C 508.368 115.988, 506.522 111.384, 505.581 108.797 C 504.557 105.981, 503.083 103.844, 501.907 103.470 C 500.697 103.086, 495.639 104.588, 488.722 107.384 C 471.454 114.366, 466.297 115.281, 447.500 114.697 C 432.490 114.232, 431.005 114.005, 423.500 111.037 C 409.050 105.321, 393.558 94.913, 390.395 88.796 C 389.135 86.360, 388.876 84.021, 389.303 78.926 C 390.276 67.320, 385.161 64.352, 377.701 72.193 M 100.214 98.750 C 96.537 100.766, 91.636 105.613, 81.850 116.910 C 63.426 138.177, 63.510 138.074, 61.494 142 C 60.505 143.925, 51.742 157.425, 42.020 172 C 23.402 199.912, 11.434 220.221, 4.303 236 L 0.010 245.500 0.005 277.623 L 0 309.747 3.653 314.623 C 12.222 326.065, 31.338 338.712, 45.658 342.415 C 49.045 343.291, 57.257 344.300, 63.908 344.657 C 70.559 345.015, 76 345.384, 76 345.478 C 76 345.571, 74.395 349.351, 72.433 353.878 C 69.191 361.361, 68.850 363.034, 68.683 372.304 C 68.516 381.626, 68.732 382.950, 71.211 387.754 C 75.078 395.249, 84.694 407, 86.960 407 C 88.268 407, 89.368 405.603, 90.600 402.378 C 92.213 398.153, 92.242 397.142, 90.933 390.628 C 90.145 386.707, 89.500 379, 89.500 373.500 C 89.500 364.569, 89.800 362.890, 92.303 357.792 C 93.960 354.418, 96.770 350.766, 99.176 348.860 L 103.247 345.636 102.634 339.772 C 101.996 333.667, 100.463 329.596, 99.116 330.428 C 97.123 331.660, 79.582 328.811, 71.782 325.988 C 47.589 317.235, 30.969 300.925, 26.892 281.938 C 25.344 274.732, 26.365 246.502, 28.448 238.903 C 30.497 231.429, 49.583 193.847, 65.471 166 C 80.654 139.390, 81.037 138.807, 96.041 119.500 C 110.217 101.257, 110.376 100.982, 108.396 98.155 C 106.483 95.424, 106.248 95.441, 100.214 98.750 M 468.597 260 C 464.385 262.750, 460.608 265, 460.204 265 C 459.801 265, 457.902 265.839, 455.985 266.865 C 451.832 269.088, 429.401 275.602, 422.950 276.459 C 414.661 277.559, 384.794 279.215, 364.739 279.686 L 344.978 280.150 341 277 C 334.921 272.185, 333.560 273.038, 333.204 281.881 C 332.866 290.272, 333.411 291.255, 340.897 295.741 C 345.492 298.495, 345.532 298.500, 364 298.437 C 391.253 298.344, 431.963 294.922, 442.718 291.820 C 445.039 291.151, 447.247 290.913, 447.625 291.292 C 448.728 292.394, 445.053 299.552, 441.258 303.692 C 439.338 305.786, 437.257 308.211, 436.634 309.079 C 433.921 312.858, 418.767 325.694, 410.605 331.126 C 392.830 342.957, 378.014 349.983, 353 358.446 C 346.125 360.771, 337.950 363.638, 334.834 364.816 C 326.876 367.825, 298.790 369.760, 288.535 368.006 C 284.192 367.263, 270.406 366.741, 253.441 366.678 C 226.061 366.575, 225.319 366.626, 216.500 369.204 C 204.380 372.747, 190.051 377.717, 188.645 378.865 C 188.015 379.379, 181.054 383.213, 173.175 387.384 C 143.828 402.921, 135.325 411.248, 134.301 425.455 C 133.920 430.744, 134.169 431.869, 136.297 434.449 C 138.638 437.288, 138.879 437.353, 142.731 436.199 C 145.459 435.381, 147.809 433.628, 150.116 430.689 C 151.977 428.318, 157.325 423.030, 162 418.939 C 180.953 402.352, 193.333 394.168, 206 389.855 L 215.500 386.620 258 386.426 C 322.536 386.131, 341.221 384.389, 366.500 376.308 C 383.162 370.982, 391.298 367.369, 405 359.208 C 425.317 347.108, 437.376 336.936, 455.157 316.899 C 461.160 310.134, 473.710 292.909, 477.566 286.142 C 478.394 284.689, 480.833 281.271, 482.987 278.547 C 485.141 275.823, 488.088 271.417, 489.536 268.757 C 491.801 264.596, 492.017 263.488, 491.088 260.824 C 489.562 256.445, 487.254 255.068, 481.378 255.032 C 476.894 255.004, 475.304 255.622, 468.597 260" stroke="none" fill="black" fill-rule="evenodd"/>
</svg>